<?xml version="1.0" encoding="UTF-8" standalone="no"?>
<!-- Svg Vector Icons : http://www.onlinewebfonts.com/icon -->

<svg
   xmlns:dc="http://purl.org/dc/elements/1.1/"
   xmlns:cc="http://creativecommons.org/ns#"
   xmlns:rdf="http://www.w3.org/1999/02/22-rdf-syntax-ns#"
   xmlns:svg="http://www.w3.org/2000/svg"
   xmlns="http://www.w3.org/2000/svg"
   xmlns:sodipodi="http://sodipodi.sourceforge.net/DTD/sodipodi-0.dtd"
   xmlns:inkscape="http://www.inkscape.org/namespaces/inkscape"
   version="1.1"
   x="0px"
   y="0px"
   viewBox="0 0 40 40"
   enable-background="new 0 0 1000 1000"
   xml:space="preserve"
   id="svg4498"
   sodipodi:docname="flechab2.svg"
   width="40"
   height="40"
   inkscape:version="0.92.0 r15299"><defs
     id="defs4502" /><sodipodi:namedview
     pagecolor="#ffffff"
     bordercolor="#666666"
     borderopacity="1"
     objecttolerance="10"
     gridtolerance="10"
     guidetolerance="10"
     inkscape:pageopacity="0"
     inkscape:pageshadow="2"
     inkscape:window-width="1920"
     inkscape:window-height="1017"
     id="namedview4500"
     showgrid="false"
     inkscape:zoom="10.680141"
     inkscape:cx="4.1205038"
     inkscape:cy="30.401525"
     inkscape:window-x="-8"
     inkscape:window-y="-8"
     inkscape:window-maximized="1"
     inkscape:current-layer="svg4498" /><metadata
     id="metadata4492"> Svg Vector Icons : http://www.onlinewebfonts.com/icon <rdf:RDF><cc:Work
     rdf:about=""><dc:format>image/svg+xml</dc:format><dc:type
       rdf:resource="http://purl.org/dc/dcmitype/StillImage" /><dc:title></dc:title></cc:Work></rdf:RDF></metadata><g
     id="g4496"
     transform="matrix(0.02917075,0,0,0.02917075,5.6014948,5.5004818)"
     style="fill:#ffffff;fill-opacity:1"><path
       d="m 500,317.9 433.9,433.9 c 6.1,6.3 14.4,9.6 23.3,9.6 8.8,0 17.1,-3.4 23.3,-9.6 6.1,-6.1 9.6,-14.4 9.6,-23.3 0,-8.8 -3.4,-17.1 -9.6,-23.3 l -457.2,-457 c -12.8,-12.8 -33.7,-12.8 -46.5,0 L 19.6,705.3 c -6.1,6.1 -9.4,14.4 -9.6,23.3 0,0.1 0,0.3 0,0.4 0,5.8 3.4,14.3 3.4,14.3 1.6,3.1 3.6,6 6.1,8.6 12.8,12.8 33.7,12.8 46.5,0 z"
       id="path4494"
       inkscape:connector-curvature="0"
       style="fill:#ffffff;fill-opacity:1" /></g></svg>