<?xml version="1.0" encoding="UTF-8" standalone="no"?>
<!-- Svg Vector Icons : http://www.onlinewebfonts.com/icon -->

<svg
   xmlns:dc="http://purl.org/dc/elements/1.1/"
   xmlns:cc="http://creativecommons.org/ns#"
   xmlns:rdf="http://www.w3.org/1999/02/22-rdf-syntax-ns#"
   xmlns:svg="http://www.w3.org/2000/svg"
   xmlns="http://www.w3.org/2000/svg"
   xmlns:sodipodi="http://sodipodi.sourceforge.net/DTD/sodipodi-0.dtd"
   xmlns:inkscape="http://www.inkscape.org/namespaces/inkscape"
   version="1.1"
   x="0px"
   y="0px"
   viewBox="0 0 40 40"
   enable-background="new 0 0 1000 1000"
   xml:space="preserve"
   id="svg10"
   sodipodi:docname="flecha.svg"
   width="40"
   height="40"
   inkscape:version="0.92.0 r15299"><defs
     id="defs14" /><sodipodi:namedview
     pagecolor="#ffffff"
     bordercolor="#666666"
     borderopacity="1"
     objecttolerance="10"
     gridtolerance="10"
     guidetolerance="10"
     inkscape:pageopacity="0"
     inkscape:pageshadow="2"
     inkscape:window-width="1920"
     inkscape:window-height="1017"
     id="namedview12"
     showgrid="false"
     inkscape:zoom="8"
     inkscape:cx="40.5"
     inkscape:cy="11.462595"
     inkscape:window-x="-8"
     inkscape:window-y="-8"
     inkscape:window-maximized="1"
     inkscape:current-layer="svg10" /><metadata
     id="metadata2"> Svg Vector Icons : http://www.onlinewebfonts.com/icon <rdf:RDF><cc:Work
     rdf:about=""><dc:format>image/svg+xml</dc:format><dc:type
       rdf:resource="http://purl.org/dc/dcmitype/StillImage" /><dc:title></dc:title></cc:Work></rdf:RDF></metadata><g
     id="g8"
     transform="matrix(0.03136173,0,0,0.03136173,4.3882899,4.564518)"><g
       transform="matrix(1,0,0,-1,0,1536)"
       id="g6"><path
         d="M 978.4,833.3 877.5,732.9 c -7.7,-7.7 -16.8,-11.5 -27.4,-11.5 -10.5,0 -19.7,3.8 -27.4,11.5 L 500,1055.8 177.2,732.9 c -7.7,-7.7 -16.8,-11.5 -27.4,-11.5 -10.6,0 -19.7,3.8 -27.4,11.5 L 21.6,833.3 C 13.9,841 10,850.2 10,860.9 c 0,10.7 3.9,20 11.6,27.7 l 451.1,450.5 c 7.7,7.7 16.8,11.6 27.4,11.6 10.5,0 19.7,-3.9 27.4,-11.6 L 978.6,888.6 c 7.7,-7.7 11.6,-16.9 11.6,-27.7 -0.2,-10.7 -4.1,-19.9 -11.8,-27.6 z"
         id="path4"
         inkscape:connector-curvature="0" /></g></g></svg>