<?xml version="1.0" encoding="UTF-8" standalone="no"?>
<!-- Created with Inkscape (http://www.inkscape.org/) -->

<svg
   xmlns:dc="http://purl.org/dc/elements/1.1/"
   xmlns:cc="http://creativecommons.org/ns#"
   xmlns:rdf="http://www.w3.org/1999/02/22-rdf-syntax-ns#"
   xmlns:svg="http://www.w3.org/2000/svg"
   xmlns="http://www.w3.org/2000/svg"
   xmlns:sodipodi="http://sodipodi.sourceforge.net/DTD/sodipodi-0.dtd"
   xmlns:inkscape="http://www.inkscape.org/namespaces/inkscape"
   width="200"
   height="200"
   viewBox="0 0 52.916665 52.916667"
   version="1.1"
   id="svg130"
   inkscape:version="0.92.0 r15299"
   sodipodi:docname="newportBYN.svg"
   inkscape:export-filename="C:\Users\lucia\Desktop\marca.png"
   inkscape:export-xdpi="96"
   inkscape:export-ydpi="96">
  <defs
     id="defs124" />
  <sodipodi:namedview
     id="base"
     pagecolor="#ffffff"
     bordercolor="#666666"
     borderopacity="1.0"
     inkscape:pageopacity="0.0"
     inkscape:pageshadow="2"
     inkscape:zoom="2.8284271"
     inkscape:cx="136.70011"
     inkscape:cy="97.68679"
     inkscape:document-units="mm"
     inkscape:current-layer="g5059"
     showgrid="false"
     inkscape:window-width="1920"
     inkscape:window-height="1017"
     inkscape:window-x="-8"
     inkscape:window-y="-8"
     inkscape:window-maximized="1"
     inkscape:measure-start="-110,450"
     inkscape:measure-end="0,0"
     units="px" />
  <metadata
     id="metadata127">
    <rdf:RDF>
      <cc:Work
         rdf:about="">
        <dc:format>image/svg+xml</dc:format>
        <dc:type
           rdf:resource="http://purl.org/dc/dcmitype/StillImage" />
        <dc:title></dc:title>
      </cc:Work>
    </rdf:RDF>
  </metadata>
  <g
     inkscape:label="Capa 1"
     inkscape:groupmode="layer"
     id="layer1"
     style="display:inline"
     transform="translate(0,-244.08333)">
    <g
       id="g5059"
       transform="matrix(1.6951627,0,0,1.6951627,0.53841143,-194.62425)">
      <path
         inkscape:connector-curvature="0"
         id="path38"
         style="fill:#b2b2b2;fill-opacity:1;fill-rule:nonzero;stroke:none;stroke-width:0.60046875"
         d="m 11.430734,276.70031 c 0.74699,1.1451 1.6693,3.1345 1.97374,4.42251 0.987773,-3.55417 0.699886,-6.08059 -0.508523,-8.59267 -0.761391,-2.26916 -2.754491,-4.94841 -3.6137708,-7.15333 -0.563842,-0.50621 -1.3005455,-0.92666 -1.9610525,-1.17525 -3.2935782,-1.23637 -4.7853607,1.77155 -4.6262467,4.63639 0.888097,0.53683 1.7095675,1.51059 2.3821085,1.96754 2.6228422,2.07342 4.3998503,3.0077 6.0889635,6.02023"
         sodipodi:nodetypes="cccccccc" />
      <path
         inkscape:connector-curvature="0"
         id="path42"
         style="fill:#bfbfbf;fill-opacity:1;fill-rule:nonzero;stroke:none;stroke-width:0.60046875"
         d="m 15.641633,277.83555 c 0.223982,-1.95451 1.055637,-4.45905 2.269773,-6.56009 -2.085416,-4.14864 -6.043722,-8.36694 -9.1025103,-8.32431 -0.197546,0.62689 -0.02162,1.46275 0.348287,2.41149 0.8586673,2.20492 2.7687473,5.02412 3.5301563,7.29269 0.733169,2.61024 1.70472,4.43926 0.716948,7.99343 -0.303828,-1.28801 -1.226749,-2.80299 -1.97374,-3.94869 -1.6891123,-3.01253 -3.7313103,-4.1138 -6.3535575,-6.18722 -0.672523,-0.45694 -1.535394,-1.291 -2.424086,-1.82842 -0.44255,-0.26781 -0.891092,-0.46175 -1.327038,-0.49598 -2.24275892,-0.0972 -1.07903992,1.69932 -0.68573192,3.14525 1.02138992,3.49173 -0.136339,5.70264 4.06817792,10.69194 1.10966,1.31863 5.9662575,4.41704 9.5444465,2.61985 l 0.915704,-0.40892 c 0.553648,-0.25102 1.083261,-0.6281 1.571428,-1.10367 -0.851467,-1.48796 -1.32222,-3.3314 -1.098257,-5.29735" />
      <path
         inkscape:connector-curvature="0"
         id="path46"
         style="fill:#b2b2b2;fill-opacity:1;fill-rule:nonzero;stroke:none;stroke-width:0.60046875"
         d="m 23.383498,279.4363 c -0.388491,0.99136 -1.161703,2.61936 -1.19292,3.64975 -1.312621,-2.55677 -1.234299,-4.45108 -1.085381,-6.55932 0.226382,-1.85184 1.299102,-4.07123 1.606538,-5.89005 0.350075,-0.47497 0.987717,-1.11501 1.452481,-1.41045 2.319609,-1.46093 4.000002,0.65177 4.32846,2.86449 -0.594465,0.54942 -0.750372,1.41979 -1.192327,1.87495 -1.675308,1.99474 -3.1014,2.90482 -3.916851,5.47063"
         sodipodi:nodetypes="cccccccc" />
      <path
         inkscape:connector-curvature="0"
         id="path50"
         style="fill:#bfbfbf;fill-opacity:1;fill-rule:nonzero;stroke:none;stroke-width:0.60046875"
         d="m 16.828519,278.15837 c 0.438959,-3.83698 3.231128,-9.1199 6.003501,-9.65191 0.248594,0.44853 0.244985,1.11326 0.114042,1.89627 -0.308049,1.81882 -1.322239,4.27174 -1.54862,6.12357 -0.148935,2.10825 -0.602259,3.65805 0.710361,6.21486 0.03115,-1.03042 0.497188,-2.33282 0.885697,-3.3242 0.815432,-2.56641 2.202504,-3.7295 3.877812,-5.72486 0.441359,-0.45456 0.968573,-1.22736 1.562424,-1.77678 0.29724,-0.27502 0.607672,-0.49479 0.934939,-0.58787 1.698116,-0.42753 1.092247,1.12708 1.018393,2.29259 -0.228782,2.82699 1.002171,4.33298 -1.421319,8.80406 -0.640693,1.18233 -3.859208,4.31197 -6.874167,3.50315 l -0.76379,-0.16817 c -2.428904,-0.54883 -4.929244,-3.83641 -4.499323,-7.60074" />
    </g>
  </g>
</svg>
